<svg xmlns="http://www.w3.org/2000/svg" version="1.1" xmlns:xlink="http://www.w3.org/1999/xlink" width="200" height="200"><svg xmlns="http://www.w3.org/2000/svg" version="1.1" xmlns:xlink="http://www.w3.org/1999/xlink" viewBox="0 0 200 200"><rect width="200" height="200" fill="url('#gradient')"></rect><defs><linearGradient id="SvgjsLinearGradient1001" gradientTransform="rotate(45 0.5 0.5)"><stop offset="0%" stop-color="#3c806b"></stop><stop offset="100%" stop-color="#3d3a42"></stop></linearGradient></defs><g><g fill="#d44f0f" transform="matrix(4.308555399719495,0,0,4.308555399719495,5.381234643001207,130.63808556860326)" stroke="#ebbc45" stroke-width="0.2"><path d="M9.89-8.57L9.89-6.03L4.50-6.03L4.50-2.64L10.87-2.64L10.87 0L1.07 0L1.07-14.22L10.89-14.22L10.89-11.57L4.50-11.57L4.50-8.57L9.89-8.57ZM17.88-4.82L15.69-4.82L15.69 0L12.27 0L12.27-14.22L17.94-14.22Q19.57-14.22 20.83-13.62Q22.08-13.02 22.77-11.91Q23.46-10.80 23.46-9.39L23.46-9.39Q23.46-7.31 21.97-6.07Q20.48-4.82 17.88-4.82L17.88-4.82ZM15.69-11.57L15.69-7.47L17.94-7.47Q18.94-7.47 19.46-7.97Q19.98-8.47 19.98-9.38L19.98-9.38Q19.98-10.37 19.44-10.97Q18.91-11.56 17.98-11.57L17.98-11.57L15.69-11.57ZM28.94-14.22L28.94 0L25.52 0L25.52-14.22L28.94-14.22ZM39.41-4.81L42.82-4.81Q42.75-3.33 42.02-2.19Q41.29-1.05 39.97-0.43Q38.64 0.20 36.94 0.20L36.94 0.20Q34.14 0.20 32.53-1.63Q30.92-3.46 30.92-6.79L30.92-6.79L30.92-7.49Q30.92-9.58 31.65-11.15Q32.37-12.71 33.74-13.57Q35.11-14.42 36.90-14.42L36.90-14.42Q39.49-14.42 41.06-13.06Q42.64-11.70 42.85-9.31L42.85-9.31L39.43-9.31Q39.39-10.61 38.78-11.17Q38.16-11.74 36.90-11.74L36.90-11.74Q35.63-11.74 35.03-10.78Q34.43-9.82 34.40-7.72L34.40-7.72L34.40-6.72Q34.40-4.44 34.98-3.47Q35.55-2.49 36.94-2.49L36.94-2.49Q38.13-2.49 38.75-3.05Q39.38-3.60 39.41-4.81L39.41-4.81Z"></path></g></g></svg><style>@media (prefers-color-scheme: light) { :root { filter: none; } }
@media (prefers-color-scheme: dark) { :root { filter: none; } }
</style></svg>